<svg fill="none" height="40" viewBox="0 0 40 40" width="40" xmlns="http://www.w3.org/2000/svg"><path clip-rule="evenodd" d="m8.81574 12.7482c-1.09154 1.7839-1.81574 4.3436-1.81574 7.2518s.7242 5.4679 1.81574 7.2518c1.10287 1.8024 2.44196 2.6282 3.68426 2.6282s2.5814-.8258 3.6843-2.6282c.7533-1.2312 1.3316-2.8319 1.6177-4.6616-.5373 1.8239-1.4569 3.0262-2.5012 3.0262-1.6569 0-3-3.0265-3-6.76 0-3.7334 1.3431-6.76 3-6.76.1763 0 .349.0343.517.1-1.0255-1.4199-2.2102-2.0764-3.3178-2.0764-1.2423 0-2.58139.8258-3.68426 2.6282zm-2.53098-1.675c1.43064-2.3381 3.59151-4.0732 6.21524-4.0732 2.6237 0 4.7846 1.7351 6.2152 4.0732.5054.8258.9371 1.7504 1.2848 2.7498.3477-.9994.7794-1.924 1.2848-2.7498 1.4306-2.3381 3.5915-4.0732 6.2152-4.0732s4.7846 1.7351 6.2152 4.0732c1.442 2.3565 2.2848 5.5169 2.2848 8.9268s-.8428 6.5703-2.2848 8.9268c-1.4306 2.3381-3.5915 4.0732-6.2152 4.0732s-4.7846-1.7351-6.2152-4.0732c-.5054-.8258-.9371-1.7504-1.2848-2.7498-.3477.9994-.7794 1.924-1.2848 2.7498-1.4306 2.3381-3.5915 4.0732-6.2152 4.0732-2.62373 0-4.7846-1.7351-6.21524-4.0732-1.44196-2.3565-2.28476-5.5169-2.28476-8.9268s.8428-6.5703 2.28476-8.9268zm17.53094 1.675c-1.0915 1.7839-1.8157 4.3436-1.8157 7.2518s.7242 5.4679 1.8157 7.2518c1.1029 1.8024 2.442 2.6282 3.6843 2.6282s2.5814-.8258 3.6843-2.6282c.7533-1.2312 1.3316-2.8319 1.6177-4.6616-.5373 1.8239-1.4569 3.0262-2.5012 3.0262-1.6569 0-3-3.0265-3-6.76 0-3.7334 1.3431-6.76 3-6.76.1763 0 .349.0343.517.1-1.0255-1.4199-2.2102-2.0764-3.3178-2.0764-1.2423 0-2.5814.8258-3.6843 2.6282z" fill="#1c1c1e" fill-rule="evenodd"/></svg>