<svg width="24" height="24" viewBox="0 0 24 24" fill="none" xmlns="http://www.w3.org/2000/svg">
<path d="M23.9503 10.0411C23.9399 9.89322 23.9242 9.73914 23.908 9.58314C23.8738 9.25578 23.8389 8.91727 23.855 8.59297C23.8396 8.37857 23.8654 8.15034 23.893 7.90827C23.9207 7.66006 23.9495 7.40377 23.9295 7.13135C23.9096 7.02915 23.9019 6.92771 23.8942 6.83204C23.8846 6.70716 23.875 6.58882 23.8496 6.5016C23.8158 6.26798 23.7528 5.8849 23.7293 5.74043C23.8596 5.42997 23.8435 5.05803 23.6848 4.8152C23.5503 4.60963 23.3236 4.50051 23.0754 4.51626C22.8256 4.50051 22.5117 4.64345 22.4222 4.87591L22.2308 5.21211C21.842 5.89528 21.0201 6.60649 20.5564 6.97689C20.3408 7.17016 19.9719 7.48216 19.7118 7.7004C19.7099 7.63816 19.7083 7.57476 19.7068 7.51021C19.6838 6.54079 19.6549 5.3343 18.9337 4.63883C18.7382 4.42136 18.4492 4.27996 18.1568 4.19773L18.1572 4.19658C18.1507 4.19543 18.1449 4.19428 18.1388 4.19312C17.9762 4.14855 17.8129 4.12243 17.6646 4.11128C16.1131 3.88497 14.5496 4.04865 13.0327 4.20657C12.776 4.23347 12.5205 4.25998 12.2688 4.28457C11.5876 4.34067 10.876 4.29418 10.1878 4.24845C9.60571 4.21041 9.004 4.17045 8.40883 4.19274C8.16561 4.20965 7.92623 4.23501 7.68878 4.25998C7.02098 4.33106 6.38968 4.39715 5.73188 4.27881C4.5177 4.10744 3.21938 3.95874 1.86419 4.19159C1.55757 4.25076 0.801017 4.43596 0.392193 4.87667C-0.102314 5.46724 -0.013941 6.5162 0.0509943 7.28197C0.0659794 7.46218 0.0801958 7.62586 0.0848066 7.77302C0.124383 8.21796 0.182018 8.6483 0.237348 9.06404C0.284224 9.41293 0.330332 9.75605 0.363376 10.0853C0.387582 10.9099 0.348775 11.7675 0.31112 12.5967C0.285761 13.1527 0.259633 13.7271 0.253485 14.2769C0.239653 14.5317 0.21852 14.7895 0.197387 15.0492C0.132452 15.85 0.065211 16.678 0.198924 17.4757C0.207761 17.5767 0.212756 17.6809 0.218135 17.7865C0.233889 18.1177 0.250795 18.4601 0.379129 18.7563L0.406409 18.8232C0.458281 18.955 0.522833 19.1194 0.672299 19.2043L0.701116 19.2255L0.746072 19.2278C0.758367 19.2305 0.788337 19.2435 0.81677 19.2577C1.17564 19.6447 1.61713 19.8341 2.16428 19.8341C2.21077 19.8341 2.25841 19.8326 2.30683 19.8299L2.88971 19.7872C3.79611 19.72 4.10158 19.6973 5.07407 19.7484C5.41642 19.7384 5.7507 19.6996 6.07423 19.662C6.42081 19.622 6.7793 19.5805 7.14586 19.5717C7.36525 19.5836 7.5981 19.6093 7.83709 19.6358C8.09914 19.665 8.36848 19.6946 8.63898 19.7092C8.936 19.7254 9.23608 19.7111 9.52503 19.6981C9.80475 19.685 10.0941 19.6716 10.3819 19.6869C10.3842 19.6869 10.3865 19.6869 10.3892 19.6869C10.9916 19.6869 11.5937 19.7146 12.1755 19.7411C13.6402 19.8076 15.1548 19.8771 16.734 19.4987C16.8108 19.4775 16.8992 19.456 16.9945 19.4322C17.6012 19.2823 18.4319 19.0775 18.7443 18.5285C18.9368 18.1903 18.9591 17.7723 18.9787 17.4031C18.9879 17.2282 18.9971 17.0634 19.0248 16.8989C19.0325 16.7629 19.0571 16.557 19.0805 16.3829C19.9082 17.0146 20.8607 17.6405 21.8608 18.2092C22.4648 18.507 23.0043 18.4389 23.2675 18.0301C23.493 17.6805 23.4873 17.2344 23.4827 16.8763C23.4815 16.7817 23.4804 16.6941 23.4842 16.6192C23.4969 16.3875 23.5776 15.9691 23.621 15.7439C23.6429 15.6306 23.6571 15.5503 23.656 15.5499C23.9737 13.4455 24.0702 11.643 23.9503 10.0411Z" fill="black"/>
</svg>
