<svg width="40" height="40" viewBox="0 0 40 40" fill="none" xmlns="http://www.w3.org/2000/svg">
<path fill-rule="evenodd" clip-rule="evenodd" d="M18.5 11.5C14.0817 11.5 10.5 15.0817 10.5 19.5C10.5 23.9183 14.0817 27.5 18.5 27.5C22.9183 27.5 26.5 23.9183 26.5 19.5C26.5 15.0817 22.9183 11.5 18.5 11.5ZM7.5 19.5C7.5 13.4249 12.4249 8.5 18.5 8.5C24.5751 8.5 29.5 13.4249 29.5 19.5C29.5 25.5751 24.5751 30.5 18.5 30.5C12.4249 30.5 7.5 25.5751 7.5 19.5Z" fill="#1C1C1E"/>
<path fill-rule="evenodd" clip-rule="evenodd" d="M10.3801 19.0867C10.4191 19.1352 10.5 19.2686 10.5 19.5H7.5C7.5 20.6654 8.37228 21.3847 8.95415 21.7467C9.61593 22.1585 10.4738 22.4744 11.4007 22.7184C13.2768 23.2121 15.7862 23.5 18.5 23.5C21.2138 23.5 23.7232 23.2121 25.5993 22.7184C26.5262 22.4744 27.3841 22.1585 28.0459 21.7467C28.6277 21.3847 29.5 20.6654 29.5 19.5H26.5C26.5 19.2685 26.5809 19.1352 26.6199 19.0867C26.5953 19.1083 26.5464 19.1464 26.461 19.1995C26.1614 19.386 25.628 19.6087 24.8358 19.8172C23.2736 20.2283 21.0329 20.5 18.5 20.5C15.9671 20.5 13.7264 20.2283 12.1642 19.8172C11.372 19.6087 10.8386 19.386 10.539 19.1995C10.4536 19.1464 10.4047 19.1084 10.3801 19.0867ZM10.3597 19.0655C10.3586 19.0656 10.3644 19.0728 10.3801 19.0867C10.3686 19.0724 10.3607 19.0654 10.3597 19.0655ZM26.6403 19.0655C26.6393 19.0654 26.6314 19.0724 26.6199 19.0867C26.6356 19.0728 26.6414 19.0656 26.6403 19.0655Z" fill="#1C1C1E"/>
</svg>
