<svg width="40" height="40" viewBox="0 0 40 40" fill="none" xmlns="http://www.w3.org/2000/svg">
<path fill-rule="evenodd" clip-rule="evenodd" d="M12.8796 11.879C13.1885 12.0206 13.6139 12.1723 14.1642 12.3172C15.7264 12.7283 17.9671 13 20.5 13C23.0329 13 25.2736 12.7283 26.8358 12.3172C27.3861 12.1723 27.8115 12.0206 28.1204 11.879C27.813 11.6974 27.3662 11.4986 26.7658 11.3091C25.2291 10.8238 23.0136 10.5 20.5 10.5C17.9864 10.5 15.7709 10.8238 14.2342 11.3091C13.6338 11.4986 13.187 11.6974 12.8796 11.879ZM31.5 12V11.5H31.4501C31.2781 10.6534 30.6907 10.0334 30.1508 9.63031C29.4827 9.13145 28.6113 8.7458 27.6692 8.44831C25.7676 7.84779 23.2331 7.5 20.5 7.5C17.7669 7.5 15.2324 7.84779 13.3308 8.44831C12.3887 8.7458 11.5173 9.13145 10.8492 9.63031C10.3093 10.0334 9.72188 10.6534 9.54988 11.5H9.5V12V28C9.5 29.1654 10.3723 29.8847 10.9541 30.2467C11.6159 30.6585 12.4738 30.9744 13.4007 31.2184C15.2768 31.7121 17.7862 32 20.5 32C23.2138 32 25.7232 31.7121 27.5993 31.2184C28.5262 30.9744 29.3841 30.6585 30.0459 30.2467C30.6277 29.8847 31.5 29.1654 31.5 28V12ZM12.5 27.6747V14.949C12.7894 15.0474 13.0912 15.1369 13.4007 15.2184C15.2768 15.7121 17.7862 16 20.5 16C23.2138 16 25.7232 15.7121 27.5993 15.2184C27.9088 15.1369 28.2106 15.0474 28.5 14.949V27.6747C28.4879 27.6826 28.475 27.6908 28.461 27.6995C28.1614 27.886 27.628 28.1087 26.8358 28.3172C25.2736 28.7283 23.0329 29 20.5 29C17.9671 29 15.7264 28.7283 14.1642 28.3172C13.372 28.1087 12.8386 27.886 12.539 27.6995C12.525 27.6908 12.5121 27.6826 12.5 27.6747Z" fill="#1C1C1E"/>
</svg>
