<svg width="40" height="40" viewBox="0 0 40 40" fill="none" xmlns="http://www.w3.org/2000/svg">
<path fill-rule="evenodd" clip-rule="evenodd" d="M13.5447 9.18589L11.1018 13.3738L13.072 14.359L10.483 19.0192L11.5 19.6972V21.3787L13.1213 23L12 24.1213V26.2566L12.1195 26.6151L16.7022 27.1243L18.0611 32.5599L17.9603 32.8623L18.6485 33H26.3452L24.9829 27.0965L25.5543 21.3817L28.6206 17.8043C29.1833 15.0983 28.5348 11.8802 28.0939 10.5257C27.8967 10.0884 26.7685 8.45257 23.9733 7.40438C22.8173 6.97088 20.8666 7.07816 18.6257 7.5766C16.7055 8.00371 14.8241 8.65815 13.5447 9.18589ZM14.9388 32.44L14.2977 29.8756L9.88047 29.3848L8.99999 26.7434V23.1213L8.49999 22.6213V21.3027L6.51697 19.9807L8.92796 15.6409L6.89822 14.626L11.4507 6.82166L11.8988 6.62565C13.3046 6.0106 15.5972 5.17689 17.9743 4.64817C20.2667 4.13828 22.9827 3.82889 25.0267 4.59539C28.5597 5.92027 30.3797 8.16032 30.8927 9.44291L30.9091 9.48382L30.923 9.52563C31.4641 11.1489 32.3543 15.2674 31.4552 18.8638L31.3693 19.2073L28.4456 22.6183L28.0171 26.9034L29.6485 33.9728L27.6213 36H18.3515L14.0396 35.1376L14.9388 32.44Z" fill="#121212"/>
<path fill-rule="evenodd" clip-rule="evenodd" d="M15.7763 10.8813L20.7071 11.5857L23.6213 14.5L21.5 16.6213L19.2929 14.4142L17.2237 14.1186L15.916 16.0801L13.4199 14.416L15.7763 10.8813Z" fill="#121212"/>
<path fill-rule="evenodd" clip-rule="evenodd" d="M19.5 15.5V19H16.5V15.5H19.5Z" fill="#121212"/>
</svg>
