<svg width="40" height="40" viewBox="0 0 40 40" fill="none" xmlns="http://www.w3.org/2000/svg">
<path fill-rule="evenodd" clip-rule="evenodd" d="M8.03888 10.8484C8.38036 10.5634 8.83072 10.4446 9.26833 10.5242L20.2683 12.5242C20.9816 12.6539 21.5 13.2751 21.5 14V29C21.5 29.4568 21.2919 29.8887 20.9345 30.1733C20.5772 30.4579 20.1097 30.5642 19.6645 30.462L8.66451 27.9378C7.98305 27.7814 7.5 27.1749 7.5 26.4758V12C7.5 11.5552 7.69739 11.1334 8.03888 10.8484ZM10.5 13.7973V25.281L18.5 27.1168V15.2519L10.5 13.7973Z" fill="#1C1C1E"/>
<path fill-rule="evenodd" clip-rule="evenodd" d="M31.9611 10.8484C31.6196 10.5634 31.1693 10.4446 30.7317 10.5242L19.7317 12.5242C19.0184 12.6539 18.5 13.2751 18.5 14V29C18.5 29.4568 18.7081 29.8887 19.0655 30.1733C19.4228 30.4579 19.8903 30.5642 20.3355 30.462L31.3355 27.9378C32.017 27.7814 32.5 27.1749 32.5 26.4758V12C32.5 11.5552 32.3026 11.1334 31.9611 10.8484ZM29.5 13.7973V25.281L21.5 27.1168V15.2519L29.5 13.7973Z" fill="#1C1C1E"/>
<path fill-rule="evenodd" clip-rule="evenodd" d="M20.8475 8.04079C20.6287 7.98871 20.4011 7.98647 20.1814 8.03424L8.68138 10.5342C7.87186 10.7102 7.35828 11.5091 7.53426 12.3186C7.71024 13.1282 8.50915 13.6417 9.31867 13.4658L20.4849 11.0383L30.6526 13.4592C31.4585 13.6511 32.2674 13.1533 32.4592 12.3474C32.6511 11.5415 32.1534 10.7327 31.3475 10.5408L20.8475 8.04079Z" fill="#1C1C1E"/>
</svg>
