<svg width="24" height="24" viewBox="0 0 24 24" fill="none" xmlns="http://www.w3.org/2000/svg">
<path d="M22.7136 13.272C22.711 13.0584 22.7085 12.8482 22.7131 12.6447C22.7237 12.1659 22.6522 11.6934 22.5829 11.2362C22.5283 10.8745 22.4716 10.5002 22.4589 10.136C22.4467 9.76972 22.4885 9.392 22.533 8.99229C22.6349 8.07823 22.7398 7.13287 22.1586 6.31187C21.753 5.73916 20.998 5.26119 20.3318 4.83906C20.1292 4.71047 19.9354 4.58823 19.7663 4.47149C19.3327 4.17244 18.8674 3.90766 18.4178 3.65176C18.219 3.5384 18.0206 3.42589 17.8252 3.30999C17.42 3.07016 17.0186 2.82483 16.618 2.57951C15.4235 1.84902 14.1884 1.09358 12.8797 0.516215C12.7541 0.460805 12.6365 0.402856 12.5244 0.347869C12.0452 0.112693 11.593 -0.109794 10.9268 0.0593978C10.4738 0.174448 10.0483 0.43035 9.63718 0.67737C9.50859 0.754775 9.38255 0.830488 9.25988 0.89901C8.76669 1.17437 8.24304 1.40659 7.73631 1.63119C7.01387 1.95138 6.26731 2.28257 5.57955 2.74912C5.16672 3.02913 4.69171 3.25162 4.23193 3.46734C3.53064 3.79642 2.80565 4.13649 2.2304 4.6999C1.16365 5.74508 1.28716 6.86428 1.41786 8.04904C1.44408 8.28634 1.47073 8.52955 1.48934 8.78037C1.52995 9.32898 1.54094 9.89112 1.5511 10.4351C1.56082 10.9541 1.5714 11.4904 1.60735 12.0195C1.65557 12.7234 1.66488 13.4095 1.63823 14.2448C1.63569 14.3286 1.63019 14.4161 1.62469 14.5067C1.59974 14.925 1.57182 15.3996 1.75836 15.7934C1.92839 16.152 2.25874 16.4667 2.57809 16.7713C2.71725 16.9037 2.85176 17.0318 2.96215 17.1554C4.16384 18.5051 5.64257 19.4944 7.31122 20.5574C7.48168 20.6657 7.66314 20.7722 7.84756 20.8801C8.37417 21.1885 8.91854 21.5074 9.27765 21.9244C9.38678 22.0509 9.48998 22.1761 9.59192 22.2988C10.0411 22.8402 10.465 23.3516 11.1485 23.7572C11.3435 23.8727 11.5575 23.9818 11.8037 23.9983C11.821 23.9992 11.8388 24 11.8561 24C12.4187 24 13.1454 23.4222 13.9029 22.7772C14.0235 22.6748 14.1301 22.5839 14.2159 22.5158C14.4782 22.3077 14.7311 22.0869 14.9836 21.8656C15.2772 21.6089 15.5809 21.3428 15.893 21.1068C17.3811 19.9804 18.8518 18.8007 20.2743 17.66C20.7564 17.2734 21.2374 16.8876 21.7191 16.504C22.2804 16.0569 22.5854 15.433 22.6797 14.5401C22.7237 14.1196 22.7186 13.6886 22.7136 13.272ZM5.33168 6.18032C5.03602 5.96334 4.77123 5.70786 4.56524 5.37624C5.70094 4.43004 6.92589 3.59127 8.21851 2.87432C9.15118 2.35702 10.1295 1.9315 11.1574 1.64303C12.1602 1.36133 12.7292 1.67306 13.5815 2.29484C15.1947 3.47199 16.9484 4.45669 18.7938 5.22101C20.5974 5.96799 17.4581 7.51736 16.8084 8.11164C16.5093 8.38489 16.2272 8.64333 15.9332 8.87512C14.6127 9.9165 13.002 11.5111 11.1717 10.8251C9.67525 10.2642 8.70028 8.65094 7.57008 7.60788C6.91024 6.99879 6.03467 6.69678 5.33168 6.18032Z" fill="black"/>
</svg>
