<svg width="40" height="40" viewBox="0 0 40 40" fill="none" xmlns="http://www.w3.org/2000/svg">
<path fill-rule="evenodd" clip-rule="evenodd" d="M14.5447 9.18589L12.1018 13.3738L14.072 14.359L11.483 19.0192L12.5 19.6972V21.3787L14.1213 23L13 24.1213V26.2566L13.1195 26.6151L17.7022 27.1243L19.0611 32.5599L18.9603 32.8623L19.6485 33H27.3452L25.9829 27.0965L26.5543 21.3817L29.6206 17.8043C30.1833 15.0983 29.5348 11.8802 29.0939 10.5257C28.8967 10.0884 27.7685 8.45257 24.9733 7.40438C23.8173 6.97088 21.8666 7.07816 19.6257 7.5766C17.7055 8.00371 15.8241 8.65815 14.5447 9.18589ZM15.9388 32.44L15.2977 29.8756L10.8805 29.3848L9.99999 26.7434V23.1213L9.49999 22.6213V21.3027L7.51697 19.9807L9.92796 15.6409L7.89822 14.626L12.4507 6.82166L12.8988 6.62565C14.3046 6.0106 16.5972 5.17689 18.9743 4.64817C21.2667 4.13828 23.9827 3.82889 26.0267 4.59539C29.5597 5.92027 31.3797 8.16032 31.8927 9.44291L31.9091 9.48382L31.923 9.52563C32.4641 11.1489 33.3543 15.2674 32.4552 18.8638L32.3693 19.2073L29.4456 22.6183L29.0171 26.9034L30.6485 33.9728L28.6213 36H19.3515L15.0396 35.1376L15.9388 32.44Z" fill="#121212"/>
<path fill-rule="evenodd" clip-rule="evenodd" d="M16.7763 10.8813L21.7071 11.5857L24.6213 14.5L22.5 16.6213L20.2929 14.4142L18.2237 14.1186L16.916 16.0801L14.4199 14.416L16.7763 10.8813Z" fill="#121212"/>
<path fill-rule="evenodd" clip-rule="evenodd" d="M20.5 15.5V19H17.5V15.5H20.5Z" fill="#121212"/>
</svg>
