<svg width="40" height="40" viewBox="0 0 40 40" fill="none" xmlns="http://www.w3.org/2000/svg">
<path fill-rule="evenodd" clip-rule="evenodd" d="M20.5 11.5C16.0817 11.5 12.5 15.0817 12.5 19.5C12.5 23.9183 16.0817 27.5 20.5 27.5C24.9183 27.5 28.5 23.9183 28.5 19.5C28.5 15.0817 24.9183 11.5 20.5 11.5ZM9.5 19.5C9.5 13.4249 14.4249 8.5 20.5 8.5C26.5751 8.5 31.5 13.4249 31.5 19.5C31.5 25.5751 26.5751 30.5 20.5 30.5C14.4249 30.5 9.5 25.5751 9.5 19.5Z" fill="#1C1C1E"/>
<path fill-rule="evenodd" clip-rule="evenodd" d="M12.3801 19.0867C12.4191 19.1352 12.5 19.2686 12.5 19.5H9.5C9.5 20.6654 10.3723 21.3847 10.9541 21.7467C11.6159 22.1585 12.4738 22.4744 13.4007 22.7184C15.2768 23.2121 17.7862 23.5 20.5 23.5C23.2138 23.5 25.7232 23.2121 27.5993 22.7184C28.5262 22.4744 29.3841 22.1585 30.0459 21.7467C30.6277 21.3847 31.5 20.6654 31.5 19.5H28.5C28.5 19.2685 28.5809 19.1352 28.6199 19.0867C28.5953 19.1083 28.5464 19.1464 28.461 19.1995C28.1614 19.386 27.628 19.6087 26.8358 19.8172C25.2736 20.2283 23.0329 20.5 20.5 20.5C17.9671 20.5 15.7264 20.2283 14.1642 19.8172C13.372 19.6087 12.8386 19.386 12.539 19.1995C12.4536 19.1464 12.4047 19.1084 12.3801 19.0867ZM12.3597 19.0655C12.3586 19.0656 12.3644 19.0728 12.3801 19.0867C12.3686 19.0724 12.3607 19.0654 12.3597 19.0655ZM28.6403 19.0655C28.6393 19.0654 28.6314 19.0724 28.6199 19.0867C28.6356 19.0728 28.6414 19.0656 28.6403 19.0655Z" fill="#1C1C1E"/>
</svg>
