<svg width="24" height="24" viewBox="0 0 24 24" fill="none" xmlns="http://www.w3.org/2000/svg">
<path d="M16.7565 12.6106C16.6134 12.6999 16.4778 12.7845 16.3734 12.8738C16.2323 13.0161 16.0046 13.2687 15.8521 13.4387C15.7975 13.4992 15.7426 13.5592 15.6876 13.6189C14.0405 15.3949 12.0309 16.812 10.2236 18.4441L10.1426 18.4939C10.0137 18.5864 9.5821 18.9699 9.30184 19.2497C9.2971 19.256 8.96427 19.6434 8.7192 19.8339C8.65872 19.9067 8.42194 20.1877 8.31482 20.2948C7.6879 21.0953 7.2274 21.504 6.43802 22.1112C4.91895 23.1278 2.70339 22.4029 0.976405 22.5776C-0.698011 22.7468 0.256991 20.7704 0.403246 19.8624C0.528946 19.0801 0.573217 18.2876 0.675595 17.5026C0.861773 16.0748 1.13729 15.2712 2.34962 14.453C2.59311 14.2889 2.82277 14.1336 2.99788 13.9763C3.00499 13.9703 3.64456 13.4466 3.93549 13.2142C4.39836 12.8541 4.86875 12.4418 5.2834 12.0777L5.43835 11.9421C5.55931 11.8421 5.6775 11.7473 5.79648 11.6512C5.80952 11.6346 5.82099 11.6168 5.83522 11.603L6.24196 11.1966C6.59455 10.844 6.99221 10.5009 7.48355 10.2942C7.75115 10.0748 8.01639 9.85386 8.2832 9.62025C8.63184 9.35146 8.93186 9.05776 9.24927 8.74628C9.61649 8.38618 9.99636 8.01382 10.4462 7.69285C10.5656 7.60945 10.6877 7.50707 10.815 7.40074C11.1771 7.09914 11.6012 6.74576 12.068 6.71097V6.66947H12.3005C12.4894 6.66947 12.725 6.82165 12.8191 7.00308C12.8337 7.01217 12.8511 7.02087 12.8681 7.03036C12.921 7.06 12.9756 7.09044 13.0183 7.13274C13.1313 7.24539 13.2373 7.35133 13.395 7.45647C13.5488 7.6047 13.7405 7.71617 13.9263 7.82408C14.0559 7.89919 14.1788 7.97153 14.2745 8.04307C15.0548 8.56287 15.777 9.21785 16.4754 9.85149C16.7146 10.0681 16.9517 10.2831 17.1885 10.4907C17.468 10.6998 17.7297 11.1116 17.6585 11.539C17.6095 12.0785 17.1363 12.3734 16.7565 12.6106ZM23.8067 6.23624C23.7886 6.26904 23.7704 6.30185 23.7534 6.33506C23.747 6.39553 23.7277 6.48645 23.6696 6.56195C23.6589 6.58883 23.6518 6.61887 23.6435 6.6501C23.6198 6.73706 23.5885 6.85169 23.5099 6.95288C23.4881 7.0521 23.4415 7.24934 23.3877 7.35647C23.2217 7.6972 22.9758 7.99208 22.6901 8.26087C22.0869 8.82771 21.3046 9.27833 20.7129 9.79378C20.4338 10.0377 20.0903 10.3381 19.6152 10.1523C19.5705 10.1697 19.5191 10.1855 19.4717 10.1906C19.3495 10.2207 19.2649 10.2357 19.18 10.2357C19.0914 10.2357 19.0025 10.2195 18.8716 10.1867C18.8467 10.1788 18.5459 10.0582 18.4254 9.99774C18.3463 9.97363 18.2633 9.92422 18.1886 9.87955C18.121 9.89339 18.0546 9.90248 17.9898 9.90248L17.9427 9.89655C17.7419 9.84635 17.5783 9.75544 17.4585 9.63053L17.3806 9.59139C17.1217 9.46174 16.9059 9.25936 16.6778 9.04432C16.579 8.95143 16.4786 8.85656 16.3723 8.76723C16.3323 8.74588 16.2537 8.70122 16.1924 8.64785C16.0964 8.59252 16.0335 8.51662 15.9726 8.4427C15.9446 8.40831 15.9149 8.37195 15.8786 8.33558L15.8204 8.27748L14.805 7.6047C14.6469 7.4794 14.5172 7.37821 14.3872 7.27741C14.2713 7.18729 14.1551 7.09716 14.0294 6.99676C13.9373 6.99202 13.7737 6.97779 13.6322 6.93075C13.4333 6.86474 13.2697 6.68963 13.1772 6.44692L13.0918 6.36154C12.9021 6.08366 12.8566 5.85756 12.9286 5.64055C13.0645 5.2334 13.3713 4.93694 13.6681 4.64997C13.7883 4.53375 13.9073 4.41912 14.0104 4.29856C14.2543 4.05349 14.4796 3.80762 14.705 3.56215C15.4856 2.70992 16.2932 1.82884 17.4656 1.45371L17.4877 1.4466C17.5051 1.4379 17.5269 1.42486 17.553 1.40984C17.6909 1.33118 17.8988 1.2122 18.1052 1.2122C18.2471 1.19085 18.3771 1.18413 18.5056 1.19046L18.5147 1.16437C18.557 1.1782 18.6242 1.19639 18.6803 1.20587C18.693 1.20745 18.706 1.20943 18.7187 1.21101C18.7277 1.2118 18.7364 1.2122 18.744 1.2122L18.8052 1.22208C18.8115 1.22406 18.8179 1.22643 18.8242 1.2284C18.959 1.2537 19.1013 1.28967 19.2618 1.33592L19.2562 1.35568C19.3017 1.36912 19.3452 1.38296 19.3859 1.3964L19.4408 1.42525C19.5578 1.51301 19.8424 1.65056 20.1176 1.78378C20.3445 1.89327 20.5777 2.00671 20.7559 2.1083C20.8658 2.17392 20.9718 2.25218 21.0809 2.33243C21.2635 2.46761 21.452 2.60715 21.6501 2.67316L21.6916 2.69292C21.6959 2.69569 22.1509 2.9795 22.3723 3.09018C22.4928 3.15027 22.6055 3.25343 22.6762 3.32261C22.7213 3.3404 22.7616 3.36728 22.7992 3.39257C22.8126 3.40167 22.8252 3.41076 22.8375 3.41827H22.8877L22.9442 3.47479C22.9857 3.5163 23.0462 3.55227 23.1106 3.59101C23.1881 3.63765 23.2759 3.69062 23.351 3.76493C23.6443 4.17089 23.6878 4.58672 23.7297 4.98952C23.7352 5.04288 23.7407 5.09624 23.747 5.1496C23.8581 5.26858 23.972 5.42037 23.9866 5.55635C24.0415 5.80933 23.917 6.03583 23.8067 6.23624Z" fill="black"/>
</svg>
