<svg width="40" height="40" viewBox="0 0 40 40" fill="none" xmlns="http://www.w3.org/2000/svg">
<g clip-path="url(#clip0)">
<path fill-rule="evenodd" clip-rule="evenodd" d="M7.54678 -0.628204L11.6107 15.2581C11.6636 15.653 11.8224 15.9977 11.9153 16.1864C12.0629 16.4858 12.254 16.7942 12.4576 17.0727C12.6578 17.3466 12.9049 17.6395 13.1786 17.8816C13.3152 18.0024 13.4898 18.1385 13.6965 18.2513C13.8886 18.3561 14.2154 18.5 14.6279 18.5H14.9635L18.5347 29.4239L18.5502 29.4553C18.8545 30.0759 19.3742 30.4999 19.9991 30.4999C20.6241 30.4999 21.1437 30.0759 21.448 29.4553C21.4629 29.4251 21.4781 29.383 21.4803 29.3767C21.4879 29.3562 21.498 29.3284 21.5103 29.2944C21.5349 29.226 21.5696 29.1285 21.6132 29.0054C21.7003 28.759 21.8235 28.4081 21.9731 27.978C22.2724 27.1178 22.6779 25.9399 23.1134 24.6476C23.7963 22.6213 24.5566 20.3032 25.0959 18.4875C26.1191 18.3799 27.2724 17.5752 27.815 15.9843C28.2379 14.7446 31.4271 4.0557 32.4652 -0.678683L29.5348 -1.32123C28.5264 3.27772 25.3714 13.8555 24.9756 15.0158C24.871 15.3227 24.7526 15.4535 24.7006 15.5H15.0364C14.9894 15.446 14.9362 15.3798 14.8796 15.3024C14.7634 15.1434 14.6668 14.983 14.6064 14.8606C14.6015 14.8506 14.5971 14.8413 14.593 14.8326V14.8112L10.4532 -1.3717L7.54678 -0.628204Z" fill="#1C1C1E"/>
</g>
<defs>
<clipPath id="clip0">
<rect width="40" height="40" fill="white"/>
</clipPath>
</defs>
</svg>
