<svg width="40" height="40" viewBox="0 0 40 40" fill="none" xmlns="http://www.w3.org/2000/svg">
<g clip-path="url(#clip0)">
<rect x="12.4391" y="21" width="14.6341" height="7" fill="#FFD3B6"/>
<path fill-rule="evenodd" clip-rule="evenodd" d="M10 -1H12.9268V27C12.9268 27.1929 12.9269 27.3556 12.9284 27.4984C13.0677 27.5 13.2265 27.5 13.4146 27.5H27.0677C27.0689 27.4686 27.0699 27.4348 27.0706 27.3983C27.0731 27.2806 27.0732 27.1534 27.0732 27V-1H30L30 27.0336C30 27.3081 30.0001 27.6457 29.9704 27.9623C29.9394 28.2925 29.8669 28.7311 29.6436 29.1583C29.0892 30.2191 28.0413 30.5 27.0732 30.5H13.4146C13.3933 30.5 13.3719 30.5 13.3505 30.5C12.9191 30.5001 12.4818 30.5002 12.125 30.4596C11.7613 30.4182 11.1572 30.3074 10.6725 29.8107C10.1879 29.3139 10.0799 28.6947 10.0395 28.3219C9.99981 27.9562 9.99991 27.508 10 27.0657L10 -1Z" fill="#1C1C1E"/>
</g>
<defs>
<clipPath id="clip0">
<rect width="40" height="40" fill="white"/>
</clipPath>
</defs>
</svg>
