<svg width="24" height="24" viewBox="0 0 24 24" fill="none" xmlns="http://www.w3.org/2000/svg">
<g clip-path="url(#clip0)">
<path d="M23.79 8.78785C23.5651 8.30811 23.1892 7.91161 22.7571 7.48001L19.352 4.07488C19.1457 3.86855 18.9382 3.64091 18.7267 3.40893C17.6942 2.27586 16.5217 0.993264 14.813 1.4158C13.8413 1.65646 13.0207 2.28927 12.2968 2.84752C11.7373 3.27913 11.2241 3.73954 10.7278 4.18456C10.1928 4.66469 9.63887 5.161 9.03289 5.6151C7.05751 7.09495 5.39894 8.75629 3.64252 10.5155L3.26654 10.8918C2.96434 11.194 2.63057 11.5002 2.30706 11.7965C1.67149 12.38 1.01421 12.9828 0.492655 13.6425C-0.283766 14.6248 -0.00207648 15.432 0.383767 16.2404C0.560513 16.6112 0.796043 16.848 1.02368 17.0768C1.14243 17.1963 1.26513 17.3198 1.37796 17.4622C1.58035 17.7163 1.77564 17.994 1.98198 18.288C2.41753 18.9081 2.86886 19.5496 3.42396 20.0104C3.9901 20.4799 4.51955 20.9545 5.08016 21.4564L5.32871 21.6789C6.09961 22.3602 7.26464 22.2908 8.29395 22.2296C8.86048 22.1949 9.34259 22.1957 9.95055 22.2367C10.2942 22.2596 10.6548 22.2833 11.0106 22.2833C11.5965 22.2833 12.1689 22.2182 12.6258 21.9752C13.3395 21.596 13.8693 21.0011 14.3822 20.4263C14.583 20.201 14.7831 19.9761 14.9933 19.7658L22.3074 12.4522C22.4005 12.3591 22.4976 12.2648 22.5966 12.1697C23.1663 11.6201 23.8121 10.9976 23.9597 10.1612C24.0476 9.66764 23.992 9.21828 23.79 8.78785ZM11.1649 19.1153L10.9933 19.3145C10.7739 19.5749 10.7218 19.6364 10.3459 19.6723C10.0421 19.7011 9.73711 19.6806 9.41439 19.6601C9.2045 19.6463 8.99462 19.6329 8.78592 19.6329C8.67506 19.6329 8.55591 19.64 8.434 19.6471C8.20321 19.6601 7.96491 19.6747 7.77239 19.6372C7.42639 19.5698 7.20506 19.3078 6.94823 19.0044C6.84881 18.8872 6.7486 18.7689 6.63971 18.66L3.90409 15.9244C3.83623 15.8565 3.7664 15.7898 3.69697 15.7228C3.56244 15.5942 3.42751 15.4651 3.30639 15.3267C3.08033 15.069 3.08033 15.069 3.33637 14.7968L3.42672 14.7006C3.80901 14.2891 4.21379 13.8847 4.60516 13.4929C4.99929 13.0988 5.40644 12.6913 5.79386 12.2742C6.4393 11.5795 7.0729 10.9037 7.73451 10.2776C7.9444 10.0787 8.2036 9.85503 8.35746 9.87121C8.46359 9.88383 8.59615 10.0184 8.77526 10.2941C9.14533 10.865 9.68701 11.3605 10.2109 11.8395C10.4244 12.0344 10.6339 12.2261 10.826 12.4182L13.0752 14.667C13.1979 14.7901 13.3356 14.9128 13.476 15.0383C13.7506 15.2837 14.035 15.5377 14.2189 15.8056C14.3578 16.0076 14.3578 16.0076 14.1692 16.156C14.0887 16.2191 13.9944 16.294 13.8942 16.3942L12.4305 17.8575C12.2857 18.0023 12.1362 18.1451 11.9859 18.2884C11.7085 18.5527 11.4229 18.8261 11.1649 19.1153Z" fill="black"/>
</g>
<defs>
<clipPath id="clip0">
<rect width="24" height="24" fill="white"/>
</clipPath>
</defs>
</svg>
