<svg width="40" height="40" viewBox="0 0 40 40" fill="none" xmlns="http://www.w3.org/2000/svg">
<path fill-rule="evenodd" clip-rule="evenodd" d="M8.81574 13.7482C7.7242 15.5321 7 18.0918 7 21C7 23.9082 7.7242 26.4679 8.81574 28.2518C9.91861 30.0542 11.2577 30.88 12.5 30.88C13.7423 30.88 15.0814 30.0542 16.1843 28.2518C16.9376 27.0206 17.5159 25.4199 17.802 23.5902C17.2647 25.4141 16.3451 26.6164 15.3008 26.6164C13.6439 26.6164 12.3008 23.5899 12.3008 19.8564C12.3008 16.123 13.6439 13.0964 15.3008 13.0964C15.4771 13.0964 15.6498 13.1307 15.8178 13.1964C14.7923 11.7765 13.6076 11.12 12.5 11.12C11.2577 11.12 9.91861 11.9458 8.81574 13.7482ZM6.28476 12.0732C7.7154 9.7351 9.87627 8 12.5 8C15.1237 8 17.2846 9.7351 18.7152 12.0732C19.2206 12.899 19.6523 13.8236 20 14.823C20.3477 13.8236 20.7794 12.899 21.2848 12.0732C22.7154 9.7351 24.8763 8 27.5 8C30.1237 8 32.2846 9.7351 33.7152 12.0732C35.1572 14.4297 36 17.5901 36 21C36 24.4099 35.1572 27.5703 33.7152 29.9268C32.2846 32.2649 30.1237 34 27.5 34C24.8763 34 22.7154 32.2649 21.2848 29.9268C20.7794 29.101 20.3477 28.1764 20 27.177C19.6523 28.1764 19.2206 29.101 18.7152 29.9268C17.2846 32.2649 15.1237 34 12.5 34C9.87627 34 7.7154 32.2649 6.28476 29.9268C4.8428 27.5703 4 24.4099 4 21C4 17.5901 4.8428 14.4297 6.28476 12.0732ZM23.8157 13.7482C22.7242 15.5321 22 18.0918 22 21C22 23.9082 22.7242 26.4679 23.8157 28.2518C24.9186 30.0542 26.2577 30.88 27.5 30.88C28.7423 30.88 30.0814 30.0542 31.1843 28.2518C31.9376 27.0206 32.5159 25.4199 32.802 23.5902C32.2647 25.4141 31.3451 26.6164 30.3008 26.6164C28.6439 26.6164 27.3008 23.5899 27.3008 19.8564C27.3008 16.123 28.6439 13.0964 30.3008 13.0964C30.4771 13.0964 30.6498 13.1307 30.8178 13.1964C29.7923 11.7765 28.6076 11.12 27.5 11.12C26.2577 11.12 24.9186 11.9458 23.8157 13.7482Z" fill="#1C1C1E"/>
</svg>
