<svg width="40" height="40" viewBox="0 0 40 40" fill="none" xmlns="http://www.w3.org/2000/svg">
<path fill-rule="evenodd" clip-rule="evenodd" d="M18.0036 18.5462C17.5889 18.1313 17.5824 17.4454 18.0139 17.0139C18.4453 16.5825 19.1314 16.589 19.5462 17.0038L19.5462 17.0038L19.556 17.0136C19.9611 17.4294 19.9641 18.1079 19.5361 18.536C19.1046 18.9674 18.4186 18.9609 18.0037 18.5461L18.0036 18.5462ZM15.8825 20.6676L15.8824 20.6676C14.285 19.0701 14.3006 16.4846 15.8925 14.8926C17.4845 13.3007 20.0699 13.2851 21.6674 14.8824L21.6675 14.8823L21.687 14.902L25.5644 18.7794L25.5645 18.7793L25.584 18.799L31.6872 24.9022C33.2892 26.5042 32.7758 28.9712 31.3735 30.3735C29.9712 31.7758 27.5041 32.2892 25.9021 30.6872L15.8825 20.6676ZM22.3248 19.7824L23.453 20.9106C23.8581 21.3264 23.8611 22.005 23.4331 22.433C23.0016 22.8645 22.3156 22.8579 21.9008 22.4431L21.9007 22.4432L20.7823 21.3248C21.0957 21.1467 21.3905 20.9241 21.6574 20.6573C21.9242 20.3905 22.1467 20.0957 22.3248 19.7824Z" fill="#1C1C1E"/>
<path d="M7 11C11 11 11 8.62963 11 7C11 10.9111 13.6667 11 15 11C11.8487 11 11.0168 12.9799 10.9689 14.3807C10.9893 14.5759 11 14.7821 11 15C10.9737 14.8156 10.9612 14.6056 10.9689 14.3807C10.6562 11.3916 8.07282 11 7 11Z" fill="#1C1C1E"/>
<path fill-rule="evenodd" clip-rule="evenodd" d="M11 6.5C11.2761 6.5 11.5 6.72386 11.5 7C11.5 8.82881 12.1125 9.64245 12.7614 10.0404C13.4612 10.4697 14.3273 10.5 15 10.5C15.2761 10.5 15.5 10.7239 15.5 11C15.5 11.2761 15.2761 11.5 15 11.5C13.5361 11.5 12.6861 11.9553 12.191 12.501C11.6932 13.0498 11.4967 13.7537 11.4698 14.3652C11.4897 14.5675 11.5 14.779 11.5 15C11.5 15.2624 11.2972 15.4801 11.0354 15.4987C10.7737 15.5173 10.5421 15.3305 10.505 15.0707C10.4759 14.8667 10.4619 14.64 10.4681 14.4002C10.3224 13.0927 9.70035 12.3945 9.02003 12.0028C8.30616 11.5918 7.49032 11.5 7 11.5C6.72386 11.5 6.5 11.2761 6.5 11C6.5 10.7239 6.72386 10.5 7 10.5C8.90226 10.5 9.70157 9.94243 10.0766 9.34523C10.4871 8.69143 10.5 7.84396 10.5 7C10.5 6.72386 10.7239 6.5 11 6.5ZM11.0601 9.63523C11.0186 9.7171 10.9732 9.79781 10.9234 9.877C10.5993 10.3932 10.1203 10.8106 9.44162 11.0927C9.46746 11.1069 9.49326 11.1213 9.51898 11.1361C10.0677 11.452 10.5729 11.9126 10.9358 12.564C11.0709 12.309 11.2403 12.0607 11.4504 11.8291C11.7315 11.5192 12.0767 11.2489 12.4932 11.0344C12.4074 10.9913 12.3224 10.9443 12.2386 10.8929C11.7685 10.6046 11.3617 10.1963 11.0601 9.63523Z" fill="#1C1C1E"/>
<path d="M17 7C19 7 19 5.81481 19 5C19 6.95556 20.3333 7 21 7C19.4244 7 19.0084 7.98996 18.9844 8.69036C18.9946 8.78794 19 8.89105 19 9C18.9868 8.90778 18.9806 8.8028 18.9844 8.69036C18.8281 7.19582 17.5364 7 17 7Z" fill="#1C1C1E"/>
<path fill-rule="evenodd" clip-rule="evenodd" d="M19 4.5C19.2761 4.5 19.5 4.72386 19.5 5C19.5 5.85104 19.7792 6.16467 20.0114 6.30711C20.2946 6.48078 20.6607 6.5 21 6.5C21.2761 6.5 21.5 6.72386 21.5 7C21.5 7.27614 21.2761 7.5 21 7.5C20.3239 7.5 19.9718 7.70783 19.7807 7.91848C19.5856 8.13355 19.4999 8.41634 19.4855 8.67685C19.4951 8.78078 19.5 8.88847 19.5 9C19.5 9.26239 19.2972 9.48014 19.0354 9.49874C18.7737 9.51734 18.5421 9.33046 18.505 9.07071C18.4892 8.95974 18.4814 8.83864 18.4837 8.71168C18.417 8.15117 18.1568 7.87436 17.8853 7.71804C17.5809 7.54282 17.2221 7.5 17 7.5C16.7239 7.5 16.5 7.27614 16.5 7C16.5 6.72386 16.7239 6.5 17 6.5C17.9023 6.5 18.2016 6.23873 18.3266 6.03967C18.4871 5.78402 18.5 5.43655 18.5 5C18.5 4.72386 18.7239 4.5 19 4.5ZM19.0318 6.76591C18.9359 6.87988 18.825 6.98146 18.6982 7.07004C18.7923 7.14873 18.8815 7.23706 18.9637 7.33572C18.988 7.30561 19.0135 7.27588 19.04 7.24658C19.1148 7.16419 19.1968 7.08733 19.2863 7.01668C19.1947 6.94244 19.1096 6.859 19.0318 6.76591Z" fill="#1C1C1E"/>
</svg>
