<svg width="24" height="24" viewBox="0 0 24 24" fill="none" xmlns="http://www.w3.org/2000/svg">
<path d="M23.4741 11.259C23.415 11.027 23.3639 10.8289 23.3317 10.6788C23.211 9.83315 23.0284 8.97702 22.851 8.1455C22.8449 8.08095 22.8188 8.02487 22.7922 7.98332V7.86631C22.9097 7.65571 22.9089 7.43099 22.7918 7.21555C22.795 7.15987 22.7749 7.10419 22.7331 7.06223C22.6031 6.93192 22.4684 6.79676 22.2998 6.71365C22.1409 6.65313 21.9776 6.65192 21.8227 6.70518C21.7978 6.71083 21.7744 6.72132 21.7543 6.73503C21.4687 6.86293 21.2547 7.14696 21.0805 7.37773C21.0467 7.42252 21.0149 7.46488 20.9851 7.5024L20.8809 7.63352C20.7252 7.83 20.4461 8.18222 20.3435 8.28187C20.2011 8.31455 20.0937 8.43599 19.9971 8.54452C19.9693 8.57558 19.9416 8.60706 19.9138 8.6353C19.6439 8.90601 19.1092 9.4422 18.7283 9.91949C18.3984 9.72179 18.0713 9.57776 17.7515 9.49021L17.0278 9.30866C17.0117 9.30462 16.9952 9.30261 16.9787 9.30261C16.8765 9.30261 16.6887 9.278 16.5644 9.26226C16.5109 9.255 16.4642 9.24976 16.4296 9.24612C16.2558 9.16382 15.837 8.98913 15.652 8.94838C15.2404 8.77207 14.8755 8.65022 14.4081 8.53121C14.324 8.48118 14.2085 8.46141 14.0577 8.45858C13.8276 8.41663 13.6075 8.35853 13.3947 8.30204C13.029 8.20522 12.6517 8.10516 12.2329 8.09306C12.2297 8.09265 12.2261 8.09225 12.2232 8.09225L11.7578 8.06401C10.8281 8.0051 9.86783 7.94418 8.91399 8.1564C7.9843 8.34279 7.1584 8.71236 6.35905 9.07022C5.83526 9.30422 5.29418 9.5467 4.72575 9.73632C3.79605 10.0474 3.23164 10.3617 2.47453 10.9955C2.37999 11.0899 2.28505 11.2009 2.19051 11.3114C2.10402 11.4127 2.01753 11.5139 1.93184 11.6003C1.81437 11.7177 1.70696 11.9105 1.66753 11.9864C1.61403 12.0408 1.56093 12.1001 1.50622 12.1611C1.38311 12.2978 1.25639 12.4386 1.10835 12.55C1.09467 12.5601 1.0826 12.5722 1.07174 12.5855C1.0468 12.617 1.00697 12.6626 0.957491 12.719C0.601866 13.1265 -0.138349 13.9738 0.022567 14.6072C0.0652098 14.7763 0.192736 15.0058 0.550372 15.1377C0.938583 15.2951 1.33564 14.9897 1.59914 14.7888L1.65788 14.744C2.30758 14.211 2.94722 13.4654 3.54221 12.7368C3.66008 12.6464 3.77795 12.5435 3.89622 12.4399C4.01289 12.3374 4.12955 12.2349 4.21604 12.1659C4.21967 12.1639 4.51575 12.0106 4.63765 11.8282C6.6141 10.6542 8.99767 9.51644 11.7055 9.886C12.5073 9.98041 13.1739 10.1547 13.8795 10.3383C14.0665 10.3871 14.2572 10.4367 14.4648 10.4888C14.6116 10.5182 14.773 10.5626 14.9343 10.6066C15.1048 10.6534 15.2758 10.6998 15.4701 10.7349C15.5856 10.7349 15.7481 10.7667 15.8233 10.7841C16.1206 10.9326 16.4179 11.0669 16.7152 11.2009C16.9723 11.317 17.2289 11.4328 17.4957 11.5628C17.1501 11.9654 16.185 13.1124 15.9332 13.5389L15.9312 13.5368C15.8052 13.6631 15.5675 13.9605 15.5691 13.9605C15.4548 14.0751 15.3092 14.3054 15.2561 14.3918C14.6374 14.9037 14.7054 15.3605 14.8804 15.6671C15.0618 15.9406 15.3317 15.9919 15.5373 15.9983C15.6158 16.0282 15.7111 16.0205 15.8157 15.9749C16.0993 16.1629 16.461 16.2501 16.7583 16.3215C16.8826 16.3517 16.9984 16.3796 17.0962 16.4123C17.1167 16.4191 17.138 16.4223 17.1597 16.4223C17.2197 16.4223 17.3351 16.4518 17.4333 16.4812C17.7885 16.5321 18.4193 16.6737 18.5831 16.7108C18.6752 16.7677 18.7951 16.7826 18.8783 16.7854C19.4343 16.9493 19.9742 17.0247 20.6194 17.0279C20.7434 17.0703 20.8733 17.0529 20.9799 17.0384C21.0547 17.0283 21.1167 17.0336 21.1722 17.0065L21.3556 16.9141C21.5194 16.9448 21.706 17.0195 21.9019 17.0977C22.1932 17.2135 22.4925 17.3333 22.7987 17.3333C22.8457 17.3333 22.8932 17.3301 22.9411 17.3245C23.2512 17.2462 23.4584 17.0876 23.5771 16.9686C23.5924 16.9533 23.6048 16.9359 23.6149 16.9166C23.6624 16.8218 23.7283 16.6519 23.7501 16.5305C23.8772 16.3013 23.8772 15.9898 23.8772 15.7365V15.2842C24.224 14.1832 23.7549 12.3551 23.4741 11.259V11.259Z" fill="black"/>
</svg>
