<svg width="40" height="40" viewBox="0 0 40 40" fill="none" xmlns="http://www.w3.org/2000/svg">
<path fill-rule="evenodd" clip-rule="evenodd" d="M27.6005 10.5491C26.7992 10.7593 26.32 11.5793 26.5302 12.3806L27.5501 16.2691C24.2668 12.2289 18.4977 11.0534 13.8711 13.782C8.72377 16.8178 6.98369 23.5132 9.93672 28.7381C10.3443 29.4593 11.2594 29.7135 11.9806 29.3059C12.7018 28.8982 12.9561 27.9832 12.5484 27.2619C10.3856 23.4352 11.6815 18.5563 15.3951 16.3661C19.0799 14.1929 23.8039 15.4604 25.9643 19.2463L22.0693 20.3124C21.2703 20.5311 20.7998 21.3562 21.0185 22.1552C21.2372 22.9543 22.0623 23.4247 22.8613 23.206L30.396 21.1436C31.189 20.9266 31.6595 20.1116 31.4509 19.3163L29.432 11.6194C29.2218 10.8181 28.4018 10.3389 27.6005 10.5491Z" fill="#1C1C1E"/>
</svg>
