<svg width="40" height="40" viewBox="0 0 40 40" fill="none" xmlns="http://www.w3.org/2000/svg">
<path fill-rule="evenodd" clip-rule="evenodd" d="M18.3015 6.94226C18.8857 7.52966 18.883 8.4794 18.2957 9.06357L15.2523 12.0902C20.3045 10.0939 26.2004 12.0284 29.0034 16.8567C32.0862 22.1669 30.2534 28.9533 24.9226 32.0141C19.5967 35.0721 12.7827 33.2606 9.70276 27.9553C9.28683 27.2389 9.53046 26.3209 10.2469 25.905C10.9634 25.489 11.8813 25.7327 12.2972 26.4491C14.5443 30.3197 19.5282 31.6521 23.4288 29.4124C27.3247 27.1755 28.6531 22.2286 26.4089 18.3629C24.167 14.501 19.2003 13.1659 15.3036 15.3846L18.2957 18.3602C18.883 18.9443 18.8857 19.8941 18.3015 20.4815C17.7173 21.0689 16.7676 21.0715 16.1802 20.4873L10.4368 14.7754C10.1537 14.4939 9.99454 14.1111 9.99454 13.7119C9.99454 13.3126 10.1537 12.9298 10.4368 12.6483L16.1802 6.93643C16.7676 6.35225 17.7173 6.35487 18.3015 6.94226Z" fill="#1C1C1E"/>
</svg>
