<svg width="24" height="24" viewBox="0 0 24 24" fill="none" xmlns="http://www.w3.org/2000/svg">
<g clip-path="url(#clip0)">
<path d="M0.0562234 9.55118C0.00528116 9.32493 3.93936e-05 8.95223 3.93936e-05 8.79866C3.93936e-05 8.71288 0.0124001 8.61436 0.0266339 8.50836C0.0404932 8.4046 0.0562234 8.29298 0.0562234 8.18098C0.0562234 8.00193 0.109414 7.68017 0.11241 7.67493C0.11241 7.50375 0.112411 7.32657 0.168223 7.14041V6.38264C0.168223 6.15041 0.222537 5.76534 0.22441 5.76459C0.22441 5.71515 0.218417 5.66608 0.213173 5.61701C0.200437 5.50052 0.185829 5.37054 0.22441 5.23082L0.22703 4.7229C0.254 4.55958 0.267112 4.39702 0.281345 4.23408C0.295579 4.05952 0.310186 3.88535 0.342399 3.69619C0.395963 3.48418 0.450653 3.10136 0.454773 3.07888C0.508712 2.86388 0.559281 2.55336 0.561528 2.50616V2.46196L0.581379 2.42225C0.589994 2.4054 0.600858 2.36607 0.609848 2.33086C0.643185 2.2065 0.693751 2.01846 0.841334 1.92444C0.855193 1.91021 0.881041 1.89073 0.89078 1.88699C0.987045 1.79521 1.0908 1.73641 1.19568 1.71019C1.4047 1.64126 1.62495 1.76038 1.72009 1.82293C1.76654 1.83492 1.80662 1.85702 1.83696 1.878C1.90401 1.89073 1.98492 1.91545 2.05459 1.93905C2.27671 2.02745 2.43253 2.17091 2.59697 2.32224C2.66889 2.38854 2.74493 2.45821 2.81909 2.51852C2.90862 2.57808 2.99852 2.65224 3.08804 2.72716C3.16707 2.79308 3.24611 2.85938 3.32515 2.91182L3.35399 2.93542C3.37347 2.9549 3.40942 2.99086 3.38995 2.99236C3.66002 2.99236 3.89488 3.12196 4.02822 3.32835C4.09153 3.39203 4.14697 3.44597 4.19416 3.49054C4.40205 3.29127 4.63316 3.10885 4.85042 2.97363C6.31651 1.87387 7.7309 1.18541 9.29925 0.807084C9.34757 0.794723 9.39552 0.783486 9.44346 0.772248L9.44196 0.745653L9.62738 0.732169C9.77571 0.702577 9.90044 0.689093 10.0196 0.689093L10.2001 0.689467C10.5297 0.66924 10.9687 0.650511 11.4242 0.689093C11.988 0.689093 13.0252 0.735914 13.2046 0.743781C13.4488 0.687969 13.6968 0.689467 13.9421 0.750523L13.9811 0.764757C14.0425 0.795846 14.2204 0.839672 14.2901 0.857277C14.3766 0.857277 14.4744 0.879752 14.5527 0.896982C14.5856 0.904848 14.6141 0.911965 14.6272 0.913463C14.8205 0.913463 15.1542 1.02284 15.1677 1.02921C16.366 1.2577 16.8395 1.37944 17.8572 1.94467C18.0849 2.05854 18.3209 2.17616 18.5314 2.33797C18.6412 2.39266 18.8123 2.50279 18.8981 2.57995C19.1802 2.75038 19.4188 2.92831 19.6477 3.21598L20.2016 3.76998C21.2411 4.69406 21.8108 5.32746 22.442 6.64971L22.7776 7.48802C22.9473 7.88394 23.2211 8.70389 23.2327 8.73872L23.2421 8.81102C23.3496 9.03801 23.4058 9.26163 23.4612 9.48263L23.4668 9.66879C23.6845 10.3824 23.8538 11.1577 23.9669 11.9552C24.0287 12.2024 24.0287 12.4429 24.0287 12.6751L24.0193 12.7347C23.9811 12.8482 23.9725 13.0546 23.9725 13.1243C23.9725 14.2053 23.5601 15.1133 23.1615 15.9909L23.0009 16.3475C22.8904 16.5932 22.7903 16.8284 22.6937 17.0565C22.3397 17.8911 22.0333 18.6118 21.4033 19.4216C20.9474 19.9914 20.4275 20.5116 19.8724 20.9544C19.6874 21.139 19.454 21.2585 19.2266 21.372C19.1487 21.435 19.0097 21.5084 18.9401 21.5425L18.8341 21.6091C18.437 21.8582 18.0939 22.0732 17.6081 22.2358L16.5967 22.5725L16.5477 22.5812C16.5316 22.5842 16.4855 22.6021 16.4727 22.6066C15.7479 23.0898 14.9632 23.2022 14.2043 23.3105C13.8024 23.3678 13.0855 23.3693 13.0802 23.3667C12.8064 23.4056 12.5457 23.4588 12.2895 23.5112C11.7992 23.6109 11.3358 23.7053 10.7979 23.7053C10.7964 23.7053 10.7953 23.7053 10.7942 23.7053C10.1488 23.6626 9.52063 23.4064 8.91306 23.1591C8.69581 23.0707 8.48193 22.9831 8.27029 22.9078C7.91819 22.7797 7.535 22.7063 7.16454 22.6351C6.90346 22.5849 6.63377 22.5336 6.34647 22.4527C5.80034 22.2047 5.20177 21.9155 4.54214 21.4945C4.5178 21.4822 4.49008 21.4702 4.46123 21.4567C4.34961 21.4069 4.21027 21.3447 4.10052 21.2346L3.61282 20.7446L3.451 20.6206C2.75279 20.0865 2.03061 19.5344 1.59273 18.7133L1.2455 18.0147C1.19119 17.8525 1.03237 17.4281 1.03424 17.4274C0.735329 16.8891 0.620711 16.5303 0.561528 15.9328L0.564149 15.4017L0.551415 15.3279C0.492232 14.9866 0.402334 14.4709 0.889656 14.1925C1.03349 14.121 1.33765 14.1506 1.47924 14.1727C2.21228 14.1727 2.28045 15.1721 2.31679 15.7092C2.32391 15.8107 2.32952 15.8987 2.33702 15.9523C2.38534 16.1928 2.44077 16.6007 2.45164 16.74C2.5022 16.8921 2.55315 17.0374 2.6584 17.1981C2.76516 17.412 3.04047 17.8525 3.05171 17.8724C3.14722 18.0638 3.37684 18.4357 3.42665 18.5159C3.47085 18.5653 3.50981 18.6283 3.53378 18.6706C4.15595 19.0999 4.66688 19.4134 5.25683 19.7756L5.52503 19.9412C5.68572 20.0614 6.04007 20.2322 6.19365 20.3019C6.2562 20.3131 6.30864 20.3438 6.34385 20.3708C7.16642 20.5899 8.01483 20.818 8.78683 21.1495C8.91943 21.1937 9.05278 21.2469 9.18238 21.2982C9.37829 21.3758 9.56333 21.4492 9.74163 21.4867C9.90157 21.5398 10.0136 21.5927 10.1203 21.6458L10.2627 21.6462C10.5196 21.6706 10.7844 21.7032 11.053 21.7361C12.0123 21.8534 13.0038 21.9759 13.844 21.7657C14.6444 21.5301 14.8913 21.4529 15.4809 21.2679L16.3454 20.9877C16.6173 20.8218 16.9185 20.7143 17.2107 20.6098C17.4223 20.5345 17.6227 20.4626 17.8119 20.3682C18.6157 20.0236 19.5357 19.0017 19.8773 18.6223C20.1698 18.2713 20.3751 17.9469 20.5275 17.5911C20.5841 17.4776 20.6601 17.3326 20.7358 17.1873C20.8399 16.988 20.98 16.7191 21.0137 16.6367L21.0242 16.6014C21.428 15.447 21.7501 14.4724 21.915 13.3175C21.9277 13.2407 21.9434 13.1613 21.9592 13.0801C22.0116 12.8145 22.0655 12.5399 22.027 12.3073C21.9917 12.062 21.9097 11.8155 21.8224 11.554C21.7779 11.4203 21.7333 11.2862 21.6981 11.1619L21.4407 10.4142C21.1546 9.57927 21.0366 9.23354 20.6324 8.24503C20.5755 8.09296 20.5182 7.92177 20.459 7.74422C20.3421 7.39437 20.2219 7.03328 20.0747 6.73774C19.8488 6.23056 19.2982 5.56981 19.0843 5.31323C19.0221 5.23007 18.9614 5.14692 18.9015 5.06414C18.643 4.70866 18.3988 4.37267 18.049 4.11047C16.7968 3.09649 15.1629 2.46645 13.7612 2.46496C13.5099 2.43312 13.2259 2.46046 12.9506 2.48631C12.6217 2.51777 12.297 2.52451 11.9482 2.51552C11.4931 2.50616 11.0227 2.49417 10.6125 2.5762C10.2896 2.63014 9.5828 2.79233 9.57719 2.79233C8.8831 3.0403 7.99873 3.38342 7.30014 3.84826C6.85777 4.08949 6.46821 4.45695 6.09139 4.81242C6.05505 4.84651 6.01909 4.88059 5.98314 4.91393C6.35996 5.27315 6.71693 5.65896 7.06191 6.07924C7.34996 6.36728 7.79271 6.97447 7.79233 6.97784L8.08825 7.27189C8.78908 7.96635 9.45133 8.62223 9.95101 9.42232C10.0915 9.63321 10.2166 9.96096 10.1458 10.2456L10.1316 10.2846C10.0735 10.4007 9.8967 10.5577 9.7892 10.6472C9.77084 10.6873 9.73938 10.7382 9.68469 10.7993C9.65809 10.8659 9.60378 10.9128 9.5416 10.9349C9.49253 10.9678 9.43859 10.9858 9.39215 10.9952C9.36705 11.015 9.33746 11.0311 9.30337 11.0424C9.10747 11.3443 8.61003 11.3124 8.30176 11.2933C8.24782 11.29 8.201 11.2866 8.17478 11.2862C7.86051 11.3004 7.54586 11.3184 7.23234 11.3364C6.32887 11.3881 5.3943 11.4409 4.51405 11.399C4.31328 11.399 4.09827 11.3847 3.88326 11.3705C3.6765 11.3566 3.47011 11.3428 3.27758 11.3428C3.08879 11.3428 2.90562 11.2851 2.74156 11.2304H2.54715C2.44602 11.2304 2.30443 11.2458 2.13999 11.263C1.52643 11.3263 0.68626 11.4139 0.279471 11.0068C-0.0467846 10.6809 0.0168932 10.1512 0.0558491 9.97557V9.55118H0.0562234Z" fill="black"/>
</g>
<defs>
<clipPath id="clip0">
<rect width="24" height="24" fill="white"/>
</clipPath>
</defs>
</svg>
