<svg width="40" height="40" viewBox="0 0 40 40" fill="none" xmlns="http://www.w3.org/2000/svg">
<path fill-rule="evenodd" clip-rule="evenodd" d="M8.49998 10.0001C8.49998 9.17167 9.17155 8.50009 9.99998 8.50009L16.4289 8.50009C17.2573 8.50009 17.9289 9.17167 17.9289 10.0001C17.9289 10.8285 17.2573 11.5001 16.4289 11.5001H13.6213L28.5 26.3788L28.5 23.5712C28.5 22.7427 29.1716 22.0712 30 22.0712C30.8284 22.0712 31.5 22.7427 31.5 23.5712L31.5 30.0001C31.5 30.8285 30.8284 31.5001 30 31.5001L23.571 31.5001C22.7426 31.5001 22.071 30.8285 22.071 30.0001C22.071 29.1717 22.7426 28.5001 23.571 28.5001H26.3787L11.5 13.6214L11.5 16.429C11.5 17.2575 10.8284 17.929 9.99998 17.929C9.17155 17.929 8.49998 17.2575 8.49998 16.429L8.49998 10.0001Z" fill="#1C1C1E"/>
</svg>
