<svg width="24" height="24" viewBox="0 0 24 24" fill="none" xmlns="http://www.w3.org/2000/svg">
<path d="M17.4558 14.4433C17.5525 14.3286 17.7482 14.2013 17.9214 14.0888C18.0302 14.0182 18.1346 13.9498 18.2178 13.8855C18.3307 13.7978 18.4607 13.7051 18.5979 13.6075C19.1579 13.2085 19.8538 12.7124 20.0738 12.074C20.7859 10.5536 18.6744 9.17938 17.5385 8.44031L17.3771 8.33505C16.6407 7.85238 15.9151 7.33463 15.2129 6.83441C14.5449 6.35804 13.854 5.86548 13.154 5.40305C12.5643 5.01305 11.9885 4.58121 11.4321 4.16377C10.6179 3.5538 9.77626 2.92268 8.86985 2.40493C7.73358 1.75672 6.82852 1.44139 6.10249 1.44139C6.10204 1.44139 6.10114 1.44139 6.10069 1.44139L6.03142 1.45219C5.95585 1.47648 5.80965 1.48323 5.65446 1.49042C5.21992 1.51067 4.62525 1.5381 4.26493 1.97894C3.59648 2.79718 3.78271 4.06211 3.89382 4.81827C3.98739 5.45253 4.01078 6.0697 4.03507 6.72286C4.04766 7.05798 4.06071 7.39355 4.08275 7.73183C4.14708 8.69222 4.31216 9.65621 4.47141 10.5883C4.55058 11.0511 4.62975 11.5131 4.69677 11.9751L4.83712 12.9229C4.97657 13.8522 5.12051 14.8135 5.22487 15.7609L5.26041 16.0955C5.36567 17.1113 5.47543 18.1621 6.07595 19.0329C6.609 19.8062 7.29724 20.2173 8.06645 20.2227C9.04889 20.2146 10.1033 19.5898 10.9521 18.4994C11.3948 18.9987 11.908 19.422 12.4064 19.8327C12.6934 20.0689 12.9899 20.3136 13.2652 20.5669C13.5099 20.7918 13.7208 21.0527 13.9439 21.3284C14.2134 21.6622 14.4923 22.0072 14.836 22.2825C15.1544 22.5376 15.5678 22.6667 16.0339 22.6667C16.3672 22.6667 16.7275 22.6005 17.0991 22.4674C18.2736 22.0473 19.2641 21.0873 19.4553 20.1854C19.6051 19.4751 19.2002 18.7527 18.8426 18.1153C18.7459 17.9425 18.6528 17.777 18.5772 17.6209C18.2461 16.9381 17.8179 16.0344 17.4414 15.0965C17.3883 14.9647 17.3433 14.867 17.3082 14.7919C17.2839 14.7393 17.2547 14.6736 17.2471 14.6957C17.2574 14.6741 17.3109 14.612 17.3622 14.5522L17.4558 14.4433Z" fill="black"/>
</svg>
