<svg width="40" height="40" viewBox="0 0 40 40" fill="none" xmlns="http://www.w3.org/2000/svg">
<path fill-rule="evenodd" clip-rule="evenodd" d="M9.31574 21.9729C10.4186 23.7059 11.7577 24.5 13 24.5C14.2423 24.5 15.5814 23.7059 16.6843 21.9729C17.7758 20.2576 18.5 17.7964 18.5 15L21.5 15C21.5 18.2788 20.6572 21.3176 19.2152 23.5835C17.7846 25.8316 15.6237 27.5 13 27.5C10.3763 27.5 8.2154 25.8316 6.78476 23.5835C5.3428 21.3176 4.5 18.2788 4.5 15L7.5 15C7.5 17.7964 8.2242 20.2576 9.31574 21.9729Z" fill="#1C1C1E"/>
<path fill-rule="evenodd" clip-rule="evenodd" d="M24.3157 21.9729C25.4186 23.7059 26.7577 24.5 28 24.5C29.2423 24.5 30.5814 23.7059 31.6843 21.9729C32.7758 20.2576 33.5 17.7964 33.5 15L36.5 15C36.5 18.2788 35.6572 21.3176 34.2152 23.5835C32.7846 25.8316 30.6237 27.5 28 27.5C25.3763 27.5 23.2154 25.8316 21.7848 23.5835C20.3428 21.3176 19.5 18.2788 19.5 15L22.5 15C22.5 17.7964 23.2242 20.2576 24.3157 21.9729Z" fill="#1C1C1E"/>
</svg>
