<svg width="40" height="40" viewBox="0 0 40 40" fill="none" xmlns="http://www.w3.org/2000/svg">
<path fill-rule="evenodd" clip-rule="evenodd" d="M21.2825 28.3535C21.4777 28.1582 21.4777 27.8416 21.2825 27.6464L18.818 25.1819L15.2825 28.7175L17.7469 31.1819C17.9422 31.3772 18.2588 31.3772 18.454 31.1819L21.2825 28.3535ZM14.8252 18.8424C15.1082 20.1158 15.7661 21.5525 16.8055 22.9518L13.242 26.5153C11.5841 24.454 10.4421 22.1672 9.94429 19.927C9.32158 17.1248 9.65911 14.0185 11.8388 11.8388C14.0185 9.65905 17.1249 9.32152 19.9271 9.94423C22.1673 10.442 24.4541 11.5841 26.5153 13.242L22.9518 16.8055C21.5525 15.7661 20.1158 15.1081 18.8424 14.8252C17.017 14.4195 15.9169 14.8318 15.3743 15.3743C14.8318 15.9168 14.4196 17.0169 14.8252 18.8424ZM25.1753 18.8246L27.315 21.0117C27.5096 21.2106 27.8292 21.2124 28.026 21.0156L30.8542 18.1873C31.048 17.9936 31.0497 17.68 30.8581 17.4841L28.7107 15.2892L25.1753 18.8246ZM23.4038 25.5251C24.7706 26.8919 24.7706 29.108 23.4038 30.4748L20.5754 33.3032C19.2085 34.6701 16.9924 34.6701 15.6256 33.3032L12.5459 30.2235C9.77299 27.4506 7.78725 24.0497 7.01573 20.5778C6.26434 17.1966 6.55203 12.8829 9.71749 9.71743C12.883 6.55196 17.1966 6.26428 20.5779 7.01567C24.0497 7.78719 27.4507 9.77293 30.2236 12.5459L30.2294 12.5517L33.0025 15.3861C34.3438 16.7572 34.3318 18.9524 32.9755 20.3086L30.1473 23.1369C28.7699 24.5143 26.5329 24.5021 25.1706 23.1097L22.4398 20.3184C20.9195 18.8001 19.326 18.0058 18.1916 17.7537C17.9789 17.7064 17.8065 17.6815 17.6698 17.6697C17.6816 17.8064 17.7065 17.9788 17.7538 18.1916C18.0062 19.3274 18.8021 20.9234 20.3241 22.4454L23.4038 25.5251Z" fill="#1C1C1E"/>
</svg>
