<svg width="40" height="40" viewBox="0 0 40 40" fill="none" xmlns="http://www.w3.org/2000/svg">
<path fill-rule="evenodd" clip-rule="evenodd" d="M16.8055 22.9518C15.7661 21.5525 15.1082 20.1158 14.8252 18.8424C14.4196 17.0169 14.8318 15.9168 15.3744 15.3743C15.9169 14.8318 17.017 14.4195 18.8424 14.8252C20.1158 15.1081 21.5525 15.7661 22.9518 16.8055L26.5153 13.242C24.4541 11.5841 22.1673 10.442 19.9271 9.94423C17.1249 9.32152 14.0185 9.65905 11.8388 11.8388C9.65912 14.0185 9.32158 17.1248 9.94429 19.927C10.4421 22.1672 11.5841 24.454 13.242 26.5153L16.8055 22.9518ZM23.4038 30.4748C24.7706 29.108 24.7706 26.8919 23.4038 25.5251L20.3241 22.4454C18.8021 20.9234 18.0062 19.3274 17.7538 18.1916C17.7065 17.9788 17.6816 17.8064 17.6698 17.6697C17.8065 17.6815 17.9789 17.7064 18.1916 17.7537C19.326 18.0058 20.9195 18.8001 22.4398 20.3184L25.1706 23.1097C26.5329 24.5021 28.7699 24.5143 30.1473 23.1369L32.9755 20.3086C34.3318 18.9524 34.3438 16.7572 33.0025 15.3861L30.2294 12.5517L30.2236 12.5459C27.4507 9.77293 24.0497 7.78719 20.5779 7.01567C17.1966 6.26428 12.883 6.55196 9.7175 9.71743C6.55203 12.8829 6.26434 17.1966 7.01573 20.5778C7.78725 24.0497 9.77299 27.4506 12.5459 30.2235L15.6256 33.3032C16.9924 34.6701 19.2085 34.6701 20.5754 33.3032L23.4038 30.4748ZM33.9758 26.2683C34.124 25.4532 33.5834 24.6724 32.7683 24.5242C31.9533 24.376 31.1724 24.9166 31.0242 25.7317C30.3807 29.2707 27.2401 30.7499 25.7317 31.0242C24.9166 31.1724 24.376 31.9532 24.5242 32.7683C24.6724 33.5834 25.4533 34.124 26.2683 33.9758C28.4266 33.5834 33.0193 31.5293 33.9758 26.2683Z" fill="#1C1C1E"/>
</svg>
