<svg width="40" height="40" viewBox="0 0 40 40" fill="none" xmlns="http://www.w3.org/2000/svg">
<path fill-rule="evenodd" clip-rule="evenodd" d="M4.79719 21.0607C4.2114 20.4749 4.2114 19.5252 4.79719 18.9394L9.34313 14.3934C9.92892 13.8077 10.8787 13.8077 11.4645 14.3934C12.0502 14.9792 12.0502 15.929 11.4645 16.5148L9.47917 18.5H30.5208L28.5355 16.5148C27.9497 15.929 27.9497 14.9792 28.5355 14.3934C29.1213 13.8077 30.0711 13.8077 30.6568 14.3934L35.2028 18.9394C35.7886 19.5252 35.7886 20.4749 35.2028 21.0607L30.6568 25.6066C30.0711 26.1924 29.1213 26.1924 28.5355 25.6066C27.9497 25.0209 27.9497 24.0711 28.5355 23.4853L30.5208 21.5H9.47917L11.4645 23.4853C12.0502 24.0711 12.0502 25.0209 11.4645 25.6066C10.8787 26.1924 9.92892 26.1924 9.34313 25.6066L4.79719 21.0607Z" fill="#1C1C1E"/>
<path fill-rule="evenodd" clip-rule="evenodd" d="M18.9393 4.79725C19.5251 4.21146 20.4749 4.21146 21.0606 4.79725L25.6066 9.34319C26.1924 9.92898 26.1924 10.8787 25.6066 11.4645C25.0208 12.0503 24.0711 12.0503 23.4853 11.4645L21.5 9.47923L21.5 30.5209L23.4853 28.5356C24.0711 27.9498 25.0208 27.9498 25.6066 28.5356C26.1924 29.1214 26.1924 30.0711 25.6066 30.6569L21.0606 35.2028C20.4749 35.7886 19.5251 35.7886 18.9393 35.2028L14.3934 30.6569C13.8076 30.0711 13.8076 29.1214 14.3934 28.5356C14.9792 27.9498 15.9289 27.9498 16.5147 28.5356L18.5 30.5209L18.5 9.47923L16.5147 11.4645C15.9289 12.0503 14.9792 12.0503 14.3934 11.4645C13.8076 10.8787 13.8076 9.92898 14.3934 9.34319L18.9393 4.79725Z" fill="#1C1C1E"/>
</svg>
