<svg width="40" height="40" viewBox="0 0 40 40" fill="none" xmlns="http://www.w3.org/2000/svg">
<path fill-rule="evenodd" clip-rule="evenodd" d="M12.3995 10.5491C13.2008 10.7593 13.68 11.5793 13.4698 12.3806L12.4499 16.2691C15.7332 12.2289 21.5023 11.0534 26.1289 13.782C31.2762 16.8178 33.0163 23.5132 30.0633 28.7381C29.6557 29.4593 28.7406 29.7135 28.0194 29.3059C27.2982 28.8982 27.0439 27.9832 27.4516 27.2619C29.6144 23.4352 28.3185 18.5563 24.6049 16.3661C20.9201 14.1929 16.1961 15.4604 14.0357 19.2463L17.9307 20.3124C18.7297 20.5311 19.2002 21.3562 18.9815 22.1552C18.7628 22.9543 17.9377 23.4247 17.1387 23.206L9.60398 21.1436C8.81095 20.9266 8.34046 20.1116 8.54907 19.3163L10.568 11.6194C10.7782 10.8181 11.5982 10.3389 12.3995 10.5491Z" fill="#1C1C1E"/>
</svg>
