<svg width="24" height="24" viewBox="0 0 24 24" fill="none" xmlns="http://www.w3.org/2000/svg">
<path d="M0.525898 11.259C0.585035 11.027 0.636127 10.8289 0.668311 10.6788C0.788998 9.83315 0.971638 8.97702 1.14905 8.1455C1.15508 8.08095 1.18123 8.02487 1.20778 7.98332V7.86631C1.09031 7.65571 1.09112 7.43099 1.20819 7.21555C1.20497 7.15987 1.22508 7.10419 1.26692 7.06223C1.39686 6.93192 1.53163 6.79676 1.70019 6.71365C1.85909 6.65313 2.02242 6.65192 2.1773 6.70518C2.20224 6.71083 2.22558 6.72132 2.24569 6.73503C2.53132 6.86293 2.74534 7.14696 2.91953 7.37773C2.95332 7.42252 2.9851 7.46488 3.01487 7.5024L3.11907 7.63352C3.27475 7.83 3.55394 8.18222 3.65653 8.28187C3.79894 8.31455 3.90635 8.43599 4.0029 8.54452C4.03066 8.57558 4.05841 8.60706 4.08617 8.6353C4.35611 8.90601 4.89075 9.4422 5.27172 9.91949C5.6016 9.72179 5.92866 9.57776 6.24848 9.49021L6.9722 9.30866C6.9883 9.30462 7.00479 9.30261 7.02128 9.30261C7.12347 9.30261 7.31134 9.278 7.43564 9.26226C7.48915 9.255 7.53581 9.24976 7.57041 9.24612C7.7442 9.16382 8.16299 8.98913 8.34804 8.94838C8.75958 8.77207 9.12446 8.65022 9.59192 8.53121C9.676 8.48118 9.79146 8.46141 9.94232 8.45858C10.1724 8.41663 10.3925 8.35853 10.6053 8.30204C10.971 8.20522 11.3483 8.10516 11.7671 8.09306C11.7703 8.09265 11.7739 8.09225 11.7768 8.09225L12.2422 8.06401C13.1719 8.0051 14.1322 7.94418 15.086 8.1564C16.0157 8.34279 16.8416 8.71236 17.641 9.07022C18.1647 9.30422 18.7058 9.5467 19.2743 9.73632C20.2039 10.0474 20.7684 10.3617 21.5255 10.9955C21.62 11.0899 21.715 11.2009 21.8095 11.3114C21.896 11.4127 21.9825 11.5139 22.0682 11.6003C22.1856 11.7177 22.293 11.9105 22.3325 11.9864C22.386 12.0408 22.4391 12.1001 22.4938 12.1611C22.6169 12.2978 22.7436 12.4386 22.8917 12.55C22.9053 12.5601 22.9174 12.5722 22.9283 12.5855C22.9532 12.617 22.993 12.6626 23.0425 12.719C23.3981 13.1265 24.1383 13.9738 23.9774 14.6072C23.9348 14.7763 23.8073 15.0058 23.4496 15.1377C23.0614 15.2951 22.6644 14.9897 22.4009 14.7888L22.3421 14.744C21.6924 14.211 21.0528 13.4654 20.4578 12.7368C20.3399 12.6464 20.222 12.5435 20.1038 12.4399C19.9871 12.3374 19.8704 12.2349 19.784 12.1659C19.7803 12.1639 19.4842 12.0106 19.3624 11.8282C17.3859 10.6542 15.0023 9.51644 12.2945 9.886C11.4927 9.98041 10.8261 10.1547 10.1205 10.3383C9.93347 10.3871 9.74278 10.4367 9.5352 10.4888C9.38836 10.5182 9.22704 10.5626 9.06573 10.6066C8.89515 10.6534 8.72418 10.6998 8.52987 10.7349C8.41442 10.7349 8.25189 10.7667 8.17666 10.7841C7.87937 10.9326 7.58208 11.0669 7.28478 11.2009C7.02772 11.317 6.77106 11.4328 6.50434 11.5628C6.84991 11.9654 7.815 13.1124 8.06684 13.5389L8.06885 13.5368C8.19477 13.6631 8.43252 13.9605 8.43091 13.9605C8.54516 14.0751 8.69079 14.3054 8.74389 14.3918C9.36261 14.9037 9.29463 15.3605 9.11963 15.6671C8.9382 15.9406 8.66826 15.9919 8.46269 15.9983C8.38425 16.0282 8.2889 16.0205 8.18431 15.9749C7.90069 16.1629 7.53903 16.2501 7.24174 16.3215C7.11743 16.3517 7.00157 16.3796 6.90382 16.4123C6.8833 16.4191 6.86198 16.4223 6.84025 16.4223C6.78031 16.4223 6.66485 16.4518 6.5667 16.4812C6.21147 16.5321 5.58068 16.6737 5.41695 16.7108C5.32483 16.7677 5.20494 16.7826 5.12167 16.7854C4.5657 16.9493 4.02583 17.0247 3.38055 17.0279C3.25665 17.0703 3.12671 17.0529 3.0201 17.0384C2.94528 17.0283 2.88332 17.0336 2.82781 17.0065L2.64436 16.9141C2.48063 16.9448 2.29397 17.0195 2.09805 17.0977C1.80679 17.2135 1.50749 17.3333 1.20134 17.3333C1.15428 17.3333 1.10681 17.3301 1.05894 17.3245C0.748769 17.2462 0.541589 17.0876 0.422913 16.9686C0.407626 16.9533 0.395154 16.9359 0.385097 16.9166C0.337627 16.8218 0.271652 16.6519 0.249928 16.5305C0.122804 16.3013 0.122803 15.9898 0.122803 15.7365V15.2842C-0.223971 14.1832 0.245099 12.3551 0.525898 11.259V11.259Z" fill="black"/>
</svg>
