<svg width="40" height="40" viewBox="0 0 40 40" fill="none" xmlns="http://www.w3.org/2000/svg">
<path fill-rule="evenodd" clip-rule="evenodd" d="M8.5 20C8.5 18.067 10.067 16.5 12 16.5H28C29.933 16.5 31.5 18.067 31.5 20V30C31.5 31.933 29.933 33.5 28 33.5H12C10.067 33.5 8.5 31.933 8.5 30V20ZM12 19.5C11.7239 19.5 11.5 19.7239 11.5 20V30C11.5 30.2761 11.7239 30.5 12 30.5H28C28.2761 30.5 28.5 30.2761 28.5 30V20C28.5 19.7239 28.2761 19.5 28 19.5H12Z" fill="#1C1C1E"/>
<path fill-rule="evenodd" clip-rule="evenodd" d="M23.6843 10.0271C22.5814 8.29406 21.2423 7.5 20 7.5C18.7577 7.5 17.4186 8.29406 16.3157 10.0271C15.2242 11.7424 14.5 14.2036 14.5 17L11.5 17C11.5 13.7212 12.3428 10.6824 13.7848 8.41651C15.2154 6.16837 17.3763 4.5 20 4.5C22.6237 4.5 24.7846 6.16837 26.2152 8.41651C27.6572 10.6824 28.5 13.7212 28.5 17L25.5 17C25.5 14.2036 24.7758 11.7424 23.6843 10.0271Z" fill="#1C1C1E"/>
<path fill-rule="evenodd" clip-rule="evenodd" d="M19.5 22C20.3284 22 21 22.6716 21 23.5L21 26.5C21 27.3284 20.3284 28 19.5 28C18.6716 28 18 27.3284 18 26.5L18 23.5C18 22.6716 18.6716 22 19.5 22Z" fill="#1C1C1E"/>
</svg>
