<svg id="Layer_1" data-name="Layer 1" xmlns="http://www.w3.org/2000/svg" xmlns:xlink="http://www.w3.org/1999/xlink" viewBox="0 0 412 105"><defs><style>.cls-1{fill:none;}.cls-2{fill:#0070c9;}.cls-3{clip-path:url(#clip-path);}.cls-4{fill:#fff;}.cls-5{opacity:0.2;}.cls-6{clip-path:url(#clip-path-2);}.cls-7{clip-path:url(#clip-path-3);}.cls-8{clip-path:url(#clip-path-4);}.cls-9{clip-path:url(#clip-path-5);}.cls-10{clip-path:url(#clip-path-6);}.cls-11{clip-path:url(#clip-path-7);}.cls-12{clip-path:url(#clip-path-8);}.cls-13{clip-path:url(#clip-path-9);}.cls-14{clip-path:url(#clip-path-10);}</style><clipPath id="clip-path"><rect class="cls-1" x="22.36" y="17.79" width="60.26" height="69.23"/></clipPath><clipPath id="clip-path-2"><rect class="cls-1" x="22.98" y="18.4" width="30.35" height="18.21"/></clipPath><clipPath id="clip-path-3"><rect class="cls-1" x="22.98" y="34.97" width="59.02" height="34.82"/></clipPath><clipPath id="clip-path-4"><rect class="cls-1" x="51.68" y="18.4" width="30.31" height="18.21"/></clipPath><clipPath id="clip-path-5"><rect class="cls-1" x="22.98" y="34.97" width="59.02" height="34.82"/></clipPath><clipPath id="clip-path-6"><rect class="cls-1" x="22.98" y="68.15" width="30.35" height="18.25"/></clipPath><clipPath id="clip-path-7"><rect class="cls-1" x="51.68" y="68.14" width="30.31" height="18.25"/></clipPath><clipPath id="clip-path-8"><rect class="cls-1" x="22.98" y="34.97" width="1.64" height="34.82"/></clipPath><clipPath id="clip-path-9"><rect class="cls-1" x="80.35" y="34.97" width="1.65" height="34.82"/></clipPath><clipPath id="clip-path-10"><rect class="cls-1" x="51.68" y="18.4" width="1.64" height="67.9"/></clipPath></defs><title>ARkit_Badges</title><rect class="cls-2" width="412" height="105" rx="14.25" ry="14.25"/><g class="cls-3"><path class="cls-4" d="M60.85,25.5a1.44,1.44,0,0,1-.72-.19L52.5,20.89l-7.66,4.42a1.44,1.44,0,1,1-1.44-2.5L51.79,18a1.43,1.43,0,0,1,1.44,0l8.35,4.83a1.44,1.44,0,0,1-.72,2.69"/><path class="cls-4" d="M52.5,63.49A1.44,1.44,0,0,1,51.06,62V52.38a1.44,1.44,0,1,1,2.88,0V62a1.44,1.44,0,0,1-1.44,1.44"/><path class="cls-4" d="M23.8,46.89a1.44,1.44,0,0,1-1.44-1.44V35.79a1.44,1.44,0,1,1,2.88,0v9.66a1.44,1.44,0,0,1-1.44,1.44"/><path class="cls-4" d="M81.17,46.89a1.44,1.44,0,0,1-1.44-1.44V35.79a1.44,1.44,0,1,1,2.88,0v9.66a1.44,1.44,0,0,1-1.44,1.44"/><path class="cls-4" d="M81.18,70.41A1.44,1.44,0,0,1,79.74,69V59.3a1.44,1.44,0,0,1,1.44-1.44h0a1.44,1.44,0,0,1,1.44,1.44V69a1.44,1.44,0,0,1-1.44,1.44Z"/><path class="cls-4" d="M23.8,70.41A1.44,1.44,0,0,1,22.36,69V59.3a1.44,1.44,0,1,1,2.88,0V69a1.44,1.44,0,0,1-1.44,1.44"/><path class="cls-4" d="M52.5,31.2a1.44,1.44,0,0,1-1.44-1.44V19.23a1.44,1.44,0,1,1,2.88,0V29.76A1.44,1.44,0,0,1,52.5,31.2"/><path class="cls-4" d="M52.5,87a1.44,1.44,0,0,1-1.44-1.44V75.91a1.44,1.44,0,1,1,2.88,0v9.66A1.44,1.44,0,0,1,52.5,87"/><path class="cls-4" d="M52.5,87a1.45,1.45,0,0,1-.72-.19L43.38,82a1.44,1.44,0,0,1,1.44-2.5l7.69,4.45,7.58-4.39A1.44,1.44,0,0,1,61.53,82l-8.3,4.81a1.43,1.43,0,0,1-.72.19"/><path class="cls-4" d="M52.5,53.82a1.45,1.45,0,0,1-.72-.19l-8.38-4.84a1.44,1.44,0,0,1,1.44-2.5l7.66,4.42,7.63-4.42a1.44,1.44,0,0,1,1.44,2.49l-8.35,4.84a1.43,1.43,0,0,1-.72.19"/><path class="cls-4" d="M72.81,42.07a1.44,1.44,0,0,1-.72-2.69l8.36-4.83A1.44,1.44,0,0,1,81.89,37l-8.36,4.83a1.44,1.44,0,0,1-.72.19"/><path class="cls-4" d="M81.17,37.23a1.43,1.43,0,0,1-.72-.19L72.08,32.2a1.44,1.44,0,0,1,1.44-2.5l8.37,4.84a1.44,1.44,0,0,1-.72,2.69"/><path class="cls-4" d="M32.16,42.07a1.44,1.44,0,0,1-.72-.19L23.08,37a1.44,1.44,0,0,1,1.44-2.5l8.37,4.83a1.44,1.44,0,0,1-.72,2.69"/><path class="cls-4" d="M23.8,37.23a1.44,1.44,0,0,1-.72-2.69l8.36-4.82a1.44,1.44,0,0,1,1.44,2.5L24.52,37a1.45,1.45,0,0,1-.72.19"/><path class="cls-4" d="M72.8,75.24a1.44,1.44,0,0,1-.72-2.69l8.38-4.83a1.44,1.44,0,1,1,1.44,2.5l-8.38,4.83a1.44,1.44,0,0,1-.72.19"/><path class="cls-4" d="M81.17,70.41a1.43,1.43,0,0,1-.72-.19l-8.37-4.83a1.44,1.44,0,0,1,1.44-2.5l8.37,4.83a1.44,1.44,0,0,1-.72,2.69"/><path class="cls-4" d="M32.16,75.25a1.44,1.44,0,0,1-.72-.19l-8.37-4.84a1.44,1.44,0,0,1,1.44-2.5l8.37,4.84a1.44,1.44,0,0,1-.72,2.69"/><path class="cls-4" d="M23.8,70.41a1.44,1.44,0,0,1-.72-2.69l8.35-4.84a1.44,1.44,0,0,1,1.44,2.5l-8.35,4.83a1.44,1.44,0,0,1-.72.19"/><g class="cls-5"><g class="cls-6"><path class="cls-4" d="M23.8,36.61a.82.82,0,0,1-.41-1.53L52.09,18.51a.82.82,0,0,1,.82,1.42L24.21,36.5a.82.82,0,0,1-.41.11"/></g></g><g class="cls-5"><g class="cls-7"><path class="cls-4" d="M23.8,69.79a.82.82,0,0,1-.41-1.53L80.76,35.08a.82.82,0,0,1,.82,1.42L24.21,69.68a.82.82,0,0,1-.41.11"/></g></g><g class="cls-5"><g class="cls-8"><path class="cls-4" d="M81.17,36.61a.82.82,0,0,1-.41-.11L52.09,19.94a.82.82,0,0,1,.82-1.42L81.58,35.08a.82.82,0,0,1-.41,1.53"/></g></g><g class="cls-5"><g class="cls-9"><path class="cls-4" d="M81.17,69.79a.81.81,0,0,1-.41-.11L23.39,36.5a.82.82,0,0,1,.82-1.42L81.59,68.26a.82.82,0,0,1-.41,1.53"/></g></g><g class="cls-5"><g class="cls-10"><path class="cls-4" d="M52.5,86.4a.82.82,0,0,1-.41-.11L23.39,69.68a.82.82,0,0,1,.82-1.42L52.91,84.86a.82.82,0,0,1-.41,1.53"/></g></g><g class="cls-5"><g class="cls-11"><path class="cls-4" d="M52.51,86.4a.82.82,0,0,1-.41-1.53L80.76,68.26a.82.82,0,0,1,.82,1.42L52.92,86.29a.82.82,0,0,1-.41.11"/></g></g><g class="cls-5"><g class="cls-12"><path class="cls-4" d="M23.8,69.79A.82.82,0,0,1,23,69V35.79a.82.82,0,1,1,1.64,0V69a.82.82,0,0,1-.82.82"/></g></g><g class="cls-5"><g class="cls-13"><path class="cls-4" d="M81.18,69.79a.82.82,0,0,1-.82-.82V35.79a.82.82,0,1,1,1.64,0V69a.82.82,0,0,1-.82.82"/></g></g><g class="cls-5"><g class="cls-14"><path class="cls-4" d="M52.5,86.3a.82.82,0,0,1-.82-.82V19.23a.82.82,0,0,1,1.64,0V85.48a.82.82,0,0,1-.82.82"/></g></g></g><path class="cls-4" d="M115.27,73.83,100.43,33.56h5.27l11.83,33.77H118l11.83-33.77h5.27L120.24,73.83Z"/><path class="cls-4" d="M141.83,34.29a3.35,3.35,0,1,1,3.35,3.35A3.36,3.36,0,0,1,141.83,34.29Zm.95,9.46h4.8V73.83h-4.8Z"/><path class="cls-4" d="M182.61,66c-1.45,5.16-6.08,8.32-12.67,8.32-8.34,0-13.56-6-13.56-15.54s5.3-15.6,13.56-15.6S183,49,183,58.34v1.84H161.37v.22c.25,5.95,3.57,9.71,8.68,9.71,3.88,0,6.5-1.42,7.76-4.08ZM161.37,56.3h16.58c-.11-5.33-3.29-8.85-8.07-8.85S161.73,51,161.37,56.3Z"/><path class="cls-4" d="M219.94,73.83h-4.88l-6.73-23.28h-.45l-6.7,23.28h-4.86L187.9,43.75h4.86l5.92,24.06h.45l6.73-24.06h4.6l6.73,24.06h.45l5.92-24.06h4.83Z"/><path class="cls-4" d="M251.22,34.29a3.35,3.35,0,1,1,3.35,3.35A3.36,3.36,0,0,1,251.22,34.29Zm.95,9.46H257V73.83h-4.8Z"/><path class="cls-4" d="M266.12,43.75h4.58v4.74h.45c1.51-3.32,4.44-5.28,9-5.28,6.75,0,10.52,4,10.52,11.14V73.83h-4.8V55.52c0-5.41-2.29-8-7.09-8s-7.9,3.21-7.9,8.48v17.8h-4.8Z"/><path class="cls-4" d="M339.48,62.3h-16l-4,11.53h-5.27L329,33.56h5L348.8,73.83h-5.27ZM324.94,58H338l-6.31-18h-.45Z"/><path class="cls-4" d="M360.88,73.83h-5V33.56h15.38c7.76,0,12.84,4.74,12.84,12,0,5.61-3,10-8.09,11.55l9.32,16.72h-5.89l-8.62-15.94h-9.91Zm0-20.4h9.91c5.16,0,8.09-2.76,8.09-7.7s-3.12-7.7-8.32-7.7h-9.68Z"/></svg>