{
    "asset" : {
        "generator" : "Khronos glTF Blender I/O v1.5.17",
        "version" : "2.0"
    },
    "scene" : 0,
    "scenes" : [
        {
            "name" : "Scene",
            "nodes" : [
                0
            ]
        }
    ],
    "nodes" : [
        {
            "mesh" : 0,
            "name" : "Asaro_LowPoly_geo",
            "rotation" : [
                0.7071067690849304,
                0,
                0,
                0.7071068286895752
            ],
            "scale" : [
                0.5,
                0.5,
                0.5
            ],
            "translation" : [
                0,
                -2.3927156925201416,
                0
            ]
        }
    ],
    "materials" : [
        {
            "doubleSided" : true,
            "name" : "Asaro_Head",
            "pbrMetallicRoughness" : {
                "metallicFactor" : 0,
                "roughnessFactor" : 0.5527864098548889
            }
        }
    ],
    "meshes" : [
        {
            "name" : "Mesh",
            "primitives" : [
                {
                    "attributes" : {
                        "POSITION" : 0,
                        "NORMAL" : 1,
                        "TEXCOORD_0" : 2
                    },
                    "indices" : 3,
                    "material" : 0
                }
            ]
        }
    ],
    "accessors" : [
        {
            "bufferView" : 0,
            "componentType" : 5126,
            "count" : 1074,
            "max" : [
                6.067428112030029,
                7.574542045593262,
                2.9677228927612305
            ],
            "min" : [
                -6.067428112030029,
                -4.516780853271484,
                -15.82291316986084
            ],
            "type" : "VEC3"
        },
        {
            "bufferView" : 1,
            "componentType" : 5126,
            "count" : 1074,
            "type" : "VEC3"
        },
        {
            "bufferView" : 2,
            "componentType" : 5126,
            "count" : 1074,
            "type" : "VEC2"
        },
        {
            "bufferView" : 3,
            "componentType" : 5123,
            "count" : 1566,
            "type" : "SCALAR"
        }
    ],
    "bufferViews" : [
        {
            "buffer" : 0,
            "byteLength" : 12888,
            "byteOffset" : 0
        },
        {
            "buffer" : 0,
            "byteLength" : 12888,
            "byteOffset" : 12888
        },
        {
            "buffer" : 0,
            "byteLength" : 8592,
            "byteOffset" : 25776
        },
        {
            "buffer" : 0,
            "byteLength" : 3132,
            "byteOffset" : 34368
        }
    ],
    "buffers" : [
        {
            "byteLength" : 37500,
            "uri" : "data:application/octet-stream;base64,"
        }
    ]
}
